# xmcd
#
# Track frame offsets: 
#        150
#        12784
#        31761
#        42670
#        62400
#        76611
#        93362
#        106815
#        125918
#        143382
#        173589
#        185366
#        208609
#        219190
#        238159
#        254352
#        269942
#        280504
#        291947
#        301042
#        314565
#        329728
#        336624
#        351732
#
# Disc length: 4799 seconds
#
# Revision: 0
# Processed by: cddbd v1.5.2PL0 Copyright (c) Steve Scherf et al.
# Submitted via: ExactAudioCopyFreeDBPlugin 1.0
#
DISCID=6a12bd18
DTITLE=14 Iced Bears - Hold On Inside: Complete Recordings 1991-1986 [
DTITLE=Disc 2]
DYEAR=2013
DGENRE=Indiepop
TTITLE0=Take It
TTITLE1=Holland
TTITLE2=Train Song
TTITLE3=Moths
TTITLE4=Hay Fever
TTITLE5=Florence
TTITLE6=Spangle
TTITLE7=Dust Remains
TTITLE8=Cut
TTITLE9=Surfacer
TTITLE10=Coming Down
TTITLE11=Mother Sleep
TTITLE12=Come Get Me
TTITLE13=Sure To See
TTITLE14=Unhappy Days
TTITLE15=If I Said
TTITLE16=Miles Away
TTITLE17=Balloon Song
TTITLE18=Train Song (Different Version)
TTITLE19=Like A Dolphin
TTITLE20=Lie To Choose
TTITLE21=Blue Suit
TTITLE22=Cut (Different Version)
TTITLE23=Inside
EXTD=
EXTT0=
EXTT1=
EXTT2=
EXTT3=
EXTT4=
EXTT5=
EXTT6=
EXTT7=
EXTT8=
EXTT9=
EXTT10=
EXTT11=
EXTT12=
EXTT13=
EXTT14=
EXTT15=
EXTT16=
EXTT17=
EXTT18=
EXTT19=
EXTT20=
EXTT21=
EXTT22=
EXTT23=
PLAYORDER=
